<svg xmlns="http://www.w3.org/2000/svg" viewBox="0 0 100 100">
  <!-- Greek key meander - classic thick style (Border 2) -->
  <!-- Wood brown #6b4b30, border band 12 units, center transparent -->
  <g fill="none" stroke="#6b4b30" stroke-width="4" stroke-linecap="square" stroke-linejoin="miter">
    <!-- Top edge: meander left-to-right -->
    <path d="M0,6 L10,6 L10,12 L4,12 L4,18 L10,18 L10,24 L16,24 L16,18 L22,18 L22,12 L28,12 L28,18 L34,18 L34,24 L40,24 L40,18 L46,18 L46,12 L52,12 L52,18 L58,18 L58,24 L64,24 L64,18 L70,18 L70,12 L76,12 L76,18 L82,18 L82,24 L88,24 L88,6 L100,6"/>
    <!-- Right edge: meander top-to-bottom -->
    <path d="M94,0 L94,10 L88,10 L88,16 L94,16 L94,22 L88,22 L88,28 L94,28 L94,34 L88,34 L88,40 L94,40 L94,46 L88,46 L88,52 L94,52 L94,58 L88,58 L88,64 L94,64 L94,70 L88,70 L88,76 L94,76 L94,82 L88,82 L88,100"/>
    <!-- Bottom edge: meander right-to-left -->
    <path d="M100,94 L90,94 L90,88 L96,88 L96,82 L90,82 L90,76 L84,76 L84,82 L78,82 L78,88 L72,88 L72,82 L66,82 L66,76 L60,76 L60,82 L54,82 L54,88 L48,88 L48,82 L42,82 L42,76 L36,76 L36,82 L30,82 L30,88 L24,88 L24,82 L18,82 L18,76 L12,76 L12,82 L6,82 L6,88 L12,88 L12,94 L0,94"/>
    <!-- Left edge: meander bottom-to-top -->
    <path d="M6,100 L6,90 L12,90 L12,84 L6,84 L6,78 L12,78 L12,72 L6,72 L6,66 L12,66 L12,60 L6,60 L6,54 L12,54 L12,48 L6,48 L6,42 L12,42 L12,36 L6,36 L6,30 L12,30 L12,24 L6,24 L6,18 L12,18 L12,12 L6,12 L6,0"/>
  </g>
  <!-- Corner blocks -->
  <rect x="0" y="0" width="12" height="12" fill="#6b4b30"/>
  <rect x="88" y="0" width="12" height="12" fill="#6b4b30"/>
  <rect x="88" y="88" width="12" height="12" fill="#6b4b30"/>
  <rect x="0" y="88" width="12" height="12" fill="#6b4b30"/>
</svg>
